<svg width="509" height="509" viewBox="0 0 509 509" fill="none" xmlns="http://www.w3.org/2000/svg">
<path d="M441 55.9008L453.1 68.0008C462.5 77.4008 462.5 92.6008 453.1 101.901L424 131.101L377.9 85.0008L407 55.9008C416.4 46.5008 431.6 46.5008 440.9 55.9008H441ZM209.8 253.201L344 118.901L390.1 165.001L255.8 299.201C252.9 302.101 249.3 304.201 245.4 305.301L186.9 322.001L203.6 263.501C204.7 259.601 206.8 256.001 209.7 253.101L209.8 253.201ZM373.1 22.0008L175.8 219.201C167.1 227.901 160.8 238.601 157.5 250.301L128.9 350.301C126.5 358.701 128.8 367.701 135 373.901C141.2 380.101 150.2 382.401 158.6 380.001L258.6 351.401C270.4 348.001 281.1 341.701 289.7 333.101L487 135.901C515.1 107.801 515.1 62.2008 487 34.1008L474.9 22.0008C446.8 -6.09922 401.2 -6.09922 373.1 22.0008ZM88 61.0008C39.4 61.0008 0 100.401 0 149.001V421.001C0 469.601 39.4 509.001 88 509.001H360C408.6 509.001 448 469.601 448 421.001V309.001C448 295.701 437.3 285.001 424 285.001C410.7 285.001 400 295.701 400 309.001V421.001C400 443.101 382.1 461.001 360 461.001H88C65.9 461.001 48 443.101 48 421.001V149.001C48 126.901 65.9 109.001 88 109.001H200C213.3 109.001 224 98.3008 224 85.0008C224 71.7008 213.3 61.0008 200 61.0008H88Z" fill="black"/>
</svg>
