<svg width="909" height="364" viewBox="0 0 909 364" fill="none" xmlns="http://www.w3.org/2000/svg">
<path d="M842.118 15.5503L670.781 283.08C670.393 283.686 669.517 283.715 669.091 283.135L559.71 134.518C559.29 133.948 558.432 133.964 558.034 134.55L453.719 288.125C453.31 288.728 452.42 288.724 452.016 288.118L405.166 217.783C404.766 217.184 403.889 217.171 403.473 217.76L370.794 264.01C370.547 264.36 370.543 264.827 370.785 265.181L430.711 352.93C439.876 366.352 472.103 367.223 481.102 353.731L555.705 231.507C556.086 230.883 556.977 230.846 557.409 231.435L645.531 351.685C655.386 366.544 683.7 366.742 693.928 352.024L905.399 32.2045C908.627 27.3234 909.272 21.714 907.204 16.4942C905.136 11.2744 900.508 6.82748 894.242 4.03954L893.454 3.6969C875.014 -4.31302 851.32 1.18291 842.118 15.5503Z" fill="#9DF3C4"/>
<path d="M66.2737 347.881L237.61 80.3533C237.999 79.7469 238.874 79.7185 239.301 80.2985L348.682 228.915C349.102 229.485 349.96 229.469 350.358 228.883L454.675 75.3082C455.084 74.7053 455.974 74.7093 456.378 75.3159L503.228 145.648C503.628 146.248 504.505 146.26 504.921 145.671L537.597 99.4236C537.845 99.0735 537.849 98.6065 537.607 98.2525L477.683 10.5031C468.516 -2.91858 436.292 -3.78987 427.292 9.70032L352.687 131.927C352.306 132.55 351.415 132.588 350.983 131.999L262.864 11.7483C253.006 -3.11046 224.695 -3.30822 214.467 11.4096L2.99568 331.229C-0.233468 336.11 -0.878443 341.72 1.18931 346.94C3.25706 352.161 7.88569 356.608 14.1527 359.396C14.4151 359.511 14.6776 359.625 14.94 359.738C33.3802 367.746 57.072 362.251 66.2737 347.881Z" fill="white"/>
</svg>
