<svg width="155" height="83" viewBox="0 0 155 83" fill="none" xmlns="http://www.w3.org/2000/svg">
<g clip-path="url(#clip0_561_20330)">
<path d="M143.665 2.65234L115.103 47.2491C114.715 47.8555 113.839 47.8839 113.412 47.304L96.1998 23.9175C95.7799 23.347 94.9221 23.3632 94.5241 23.9492L78.1157 48.1062C77.7062 48.709 76.8164 48.705 76.4124 48.0985L69.8092 38.1854C69.4097 37.5857 68.5326 37.5736 68.1168 38.1622L63.599 44.5561C63.3516 44.9062 63.3478 45.3732 63.5896 45.7272L73.4793 60.2087C75.0429 62.4984 80.5407 62.647 82.076 60.3453L94.141 40.5788C94.5216 39.9553 95.4132 39.9177 95.8449 40.5069L110.127 59.9963C111.808 62.5311 116.639 62.5649 118.384 60.054L154.46 5.49352C155.011 4.66081 155.121 3.70387 154.768 2.81338C154.415 1.92289 153.626 1.16425 152.557 0.688637L152.422 0.630184C149.277 -0.736293 145.234 0.201302 143.665 2.65234Z" fill="#9DF3C4"/>
<path d="M11.3062 59.3473L39.8677 14.7509C40.256 14.1445 41.1318 14.1161 41.5586 14.696L58.771 38.0826C59.1908 38.653 60.0486 38.6368 60.4466 38.0509L76.8555 13.8938C77.265 13.2909 78.1547 13.295 78.5588 13.9015L85.1619 23.8142C85.5615 24.414 86.4385 24.4261 86.8544 23.8375L91.3718 17.4439C91.6192 17.0938 91.6229 16.6269 91.3811 16.2728L81.4918 1.79132C79.9279 -0.498393 74.4305 -0.647032 72.8951 1.65437L60.8297 21.4212C60.4492 22.0447 59.5576 22.0823 59.1258 21.4931L44.844 2.00375C43.1623 -0.531127 38.3324 -0.564864 36.5876 1.94597L0.511057 56.5065C-0.0398292 57.3392 -0.149861 58.2963 0.202894 59.1868C0.555648 60.0774 1.34528 60.8361 2.41442 61.3117C2.45919 61.3314 2.50397 61.3508 2.54874 61.3702C5.69459 62.7363 9.73637 61.7987 11.3062 59.3473Z" fill="white"/>
</g>
<path d="M1.29986 78.5684C1.20731 78.5684 1.13159 78.5389 1.0727 78.48C1.0138 78.4211 0.984357 78.3496 0.984357 78.2655V70.0499C0.984357 69.9573 1.0138 69.8816 1.0727 69.8227C1.13159 69.7638 1.20731 69.7344 1.29986 69.7344H2.29683C2.41462 69.7344 2.50296 69.768 2.56185 69.8353C2.62075 69.8942 2.65861 69.9405 2.67543 69.9742L5.11109 74.5174L7.57198 69.9742C7.58881 69.9405 7.62667 69.8942 7.68556 69.8353C7.74445 69.768 7.83279 69.7344 7.95058 69.7344H8.93494C9.02748 69.7344 9.1032 69.7638 9.1621 69.8227C9.22099 69.8816 9.25044 69.9573 9.25044 70.0499V78.2655C9.25044 78.3496 9.22099 78.4211 9.1621 78.48C9.1032 78.5389 9.02748 78.5684 8.93494 78.5684H7.87486C7.78231 78.5684 7.70659 78.5389 7.6477 78.48C7.59722 78.4211 7.57198 78.3496 7.57198 78.2655V72.801L5.80518 76.1706C5.76312 76.2463 5.70843 76.3136 5.64112 76.3725C5.57382 76.423 5.48548 76.4482 5.37611 76.4482H4.85869C4.7409 76.4482 4.64835 76.423 4.58105 76.3725C4.52215 76.3136 4.47167 76.2463 4.42961 76.1706L2.66281 72.801V78.2655C2.66281 78.3496 2.63337 78.4211 2.57447 78.48C2.51558 78.5389 2.44407 78.5684 2.35993 78.5684H1.29986ZM27.7708 78.6946C26.8369 78.6946 26.0966 78.4253 25.5497 77.8869C25.0028 77.3484 24.7084 76.5828 24.6663 75.59C24.6579 75.5059 24.6537 75.4007 24.6537 75.2745C24.6537 75.1399 24.6579 75.0348 24.6663 74.959C24.7 74.3281 24.843 73.7812 25.0954 73.3185C25.3562 72.8557 25.7138 72.5024 26.1681 72.2584C26.6224 72.006 27.1567 71.8798 27.7708 71.8798C28.4523 71.8798 29.0244 72.0228 29.4871 72.3089C29.9499 72.5865 30.299 72.9777 30.5346 73.4825C30.7702 73.9789 30.888 74.5552 30.888 75.2114V75.4765C30.888 75.5606 30.8585 75.6321 30.7996 75.691C30.7407 75.7499 30.665 75.7793 30.5725 75.7793H26.3826C26.3826 75.7793 26.3826 75.792 26.3826 75.8172C26.3826 75.8424 26.3826 75.8635 26.3826 75.8803C26.391 76.1748 26.4457 76.4482 26.5467 76.7006C26.6561 76.9446 26.8117 77.1423 27.0136 77.2937C27.224 77.4452 27.4722 77.5209 27.7582 77.5209C27.9938 77.5209 28.1915 77.4872 28.3513 77.4199C28.5112 77.3442 28.6416 77.2601 28.7426 77.1675C28.8435 77.075 28.915 76.9993 28.9571 76.9404C29.0328 76.8394 29.0917 76.7805 29.1338 76.7637C29.1843 76.7385 29.2558 76.7258 29.3483 76.7258H30.4336C30.5178 76.7258 30.5851 76.7511 30.6356 76.8016C30.6945 76.852 30.7197 76.9151 30.7113 76.9909C30.7029 77.1255 30.6314 77.2895 30.4967 77.483C30.3705 77.6765 30.1854 77.8658 29.9415 78.0509C29.6975 78.236 29.3904 78.3917 29.0202 78.5179C28.6584 78.6357 28.242 78.6946 27.7708 78.6946ZM26.3826 74.7193H29.1716V74.6814C29.1716 74.3533 29.117 74.0672 29.0076 73.8233C28.8982 73.5793 28.7384 73.3858 28.528 73.2427C28.3177 73.0997 28.0653 73.0282 27.7708 73.0282C27.4764 73.0282 27.224 73.0997 27.0136 73.2427C26.8033 73.3858 26.6434 73.5793 26.5341 73.8233C26.4331 74.0672 26.3826 74.3533 26.3826 74.6814V74.7193ZM46.4124 78.5684C46.3283 78.5684 46.2567 78.5389 46.1978 78.48C46.139 78.4211 46.1095 78.3496 46.1095 78.2655V72.3089C46.1095 72.2247 46.139 72.1532 46.1978 72.0943C46.2567 72.0354 46.3283 72.006 46.4124 72.006H47.4472C47.5314 72.006 47.6029 72.0354 47.6618 72.0943C47.7207 72.1532 47.7501 72.2247 47.7501 72.3089V72.8263C47.9688 72.557 48.2465 72.3341 48.583 72.1574C48.928 71.9723 49.3528 71.8798 49.8576 71.8798C50.3708 71.8798 50.8168 71.9976 51.1954 72.2331C51.574 72.4603 51.8642 72.7842 52.0661 73.2049C52.2765 73.6255 52.3816 74.1303 52.3816 74.7193V78.2655C52.3816 78.3496 52.3522 78.4211 52.2933 78.48C52.2344 78.5389 52.1629 78.5684 52.0788 78.5684H50.9682C50.8841 78.5684 50.8125 78.5389 50.7537 78.48C50.6948 78.4211 50.6653 78.3496 50.6653 78.2655V74.795C50.6653 74.307 50.5433 73.9242 50.2993 73.6466C50.0638 73.3689 49.7188 73.2301 49.2645 73.2301C48.827 73.2301 48.4779 73.3689 48.217 73.6466C47.9562 73.9242 47.8258 74.307 47.8258 74.795V78.2655C47.8258 78.3496 47.7964 78.4211 47.7375 78.48C47.6786 78.5389 47.6071 78.5684 47.5229 78.5684H46.4124ZM70.7584 78.5684C70.2536 78.5684 69.8287 78.48 69.4838 78.3033C69.1388 78.1267 68.8822 77.8658 68.7139 77.5209C68.5457 77.1675 68.4615 76.7301 68.4615 76.2084V73.3437H67.4646C67.3804 73.3437 67.3089 73.3142 67.25 73.2554C67.1911 73.1965 67.1617 73.1249 67.1617 73.0408V72.3089C67.1617 72.2247 67.1911 72.1532 67.25 72.0943C67.3089 72.0354 67.3804 72.006 67.4646 72.006H68.4615V69.9111C68.4615 69.8269 68.4868 69.7554 68.5373 69.6965C68.5962 69.6376 68.6719 69.6082 68.7644 69.6082H69.7866C69.8708 69.6082 69.9423 69.6376 70.0012 69.6965C70.0601 69.7554 70.0895 69.8269 70.0895 69.9111V72.006H71.667C71.7511 72.006 71.8227 72.0354 71.8815 72.0943C71.9404 72.1532 71.9699 72.2247 71.9699 72.3089V73.0408C71.9699 73.1249 71.9404 73.1965 71.8815 73.2554C71.8227 73.3142 71.7511 73.3437 71.667 73.3437H70.0895V76.0822C70.0895 76.4272 70.1484 76.6964 70.2662 76.8899C70.3924 77.0834 70.6069 77.1802 70.9098 77.1802H71.7806C71.8647 77.1802 71.9362 77.2096 71.9951 77.2685C72.054 77.3274 72.0835 77.3989 72.0835 77.483V78.2655C72.0835 78.3496 72.054 78.4211 71.9951 78.48C71.9362 78.5389 71.8647 78.5684 71.7806 78.5684H70.7584ZM105.306 78.5684C105.179 78.5684 105.078 78.5347 105.003 78.4674C104.935 78.3917 104.889 78.2991 104.864 78.1898L103.362 70.1004C103.362 70.0751 103.358 70.0541 103.35 70.0373C103.35 70.0204 103.35 70.0078 103.35 69.9994C103.35 69.9237 103.375 69.8606 103.425 69.8101C103.484 69.7596 103.547 69.7344 103.615 69.7344H104.725C104.935 69.7344 105.053 69.8185 105.078 69.9868L106.126 75.7036L107.262 72.006C107.287 71.9387 107.329 71.8714 107.388 71.8041C107.455 71.7283 107.552 71.6905 107.678 71.6905H108.36C108.494 71.6905 108.591 71.7283 108.65 71.8041C108.709 71.8714 108.747 71.9387 108.763 72.006L109.912 75.691L110.959 69.9868C110.985 69.8185 111.102 69.7344 111.313 69.7344H112.423C112.491 69.7344 112.549 69.7596 112.6 69.8101C112.65 69.8606 112.676 69.9237 112.676 69.9994C112.676 70.0078 112.676 70.0204 112.676 70.0373C112.676 70.0541 112.671 70.0751 112.663 70.1004L111.161 78.1898C111.144 78.2991 111.098 78.3917 111.022 78.4674C110.947 78.5347 110.846 78.5684 110.72 78.5684H109.874C109.748 78.5684 109.647 78.5347 109.571 78.4674C109.504 78.4001 109.458 78.3286 109.432 78.2529L108.019 74.0378L106.605 78.2529C106.572 78.3286 106.521 78.4001 106.454 78.4674C106.387 78.5347 106.286 78.5684 106.151 78.5684H105.306ZM129.522 78.6946C129.085 78.6946 128.689 78.6104 128.336 78.4422C127.983 78.2655 127.701 78.0341 127.491 77.7481C127.289 77.4536 127.188 77.1255 127.188 76.7637C127.188 76.1748 127.423 75.7078 127.894 75.3629C128.374 75.0095 129.005 74.774 129.787 74.6562L131.516 74.4038V74.1388C131.516 73.7854 131.428 73.512 131.251 73.3185C131.075 73.1249 130.772 73.0282 130.343 73.0282C130.04 73.0282 129.792 73.0913 129.598 73.2175C129.413 73.3353 129.274 73.4951 129.182 73.6971C129.114 73.8064 129.018 73.8611 128.891 73.8611H127.894C127.802 73.8611 127.73 73.8359 127.68 73.7854C127.638 73.7349 127.617 73.6676 127.617 73.5835C127.625 73.4489 127.68 73.2848 127.781 73.0913C127.882 72.8978 128.042 72.7127 128.26 72.536C128.479 72.3509 128.761 72.1953 129.106 72.0691C129.451 71.9429 129.867 71.8798 130.355 71.8798C130.885 71.8798 131.331 71.9471 131.693 72.0817C132.063 72.2079 132.358 72.3804 132.576 72.5991C132.795 72.8179 132.955 73.0745 133.056 73.3689C133.157 73.6634 133.207 73.9747 133.207 74.3028V78.2655C133.207 78.3496 133.178 78.4211 133.119 78.48C133.06 78.5389 132.989 78.5684 132.905 78.5684H131.882C131.79 78.5684 131.714 78.5389 131.655 78.48C131.605 78.4211 131.579 78.3496 131.579 78.2655V77.7733C131.47 77.9332 131.323 78.0846 131.138 78.2276C130.953 78.3622 130.725 78.4758 130.456 78.5684C130.195 78.6525 129.884 78.6946 129.522 78.6946ZM129.951 77.4957C130.246 77.4957 130.511 77.4326 130.746 77.3064C130.99 77.1802 131.18 76.9867 131.314 76.7258C131.457 76.4566 131.529 76.1201 131.529 75.7162V75.4512L130.267 75.6531C129.771 75.7289 129.4 75.8509 129.156 76.0191C128.912 76.1874 128.79 76.3935 128.79 76.6375C128.79 76.8226 128.845 76.9825 128.954 77.1171C129.072 77.2433 129.219 77.34 129.396 77.4073C129.573 77.4662 129.758 77.4957 129.951 77.4957ZM149.722 80.9662C149.655 80.9662 149.596 80.9409 149.545 80.8904C149.495 80.84 149.47 80.7811 149.47 80.7138C149.47 80.6801 149.47 80.6464 149.47 80.6128C149.478 80.5876 149.495 80.5539 149.52 80.5118L150.505 78.1771L148.081 72.4603C148.048 72.3762 148.031 72.3173 148.031 72.2836C148.039 72.2079 148.069 72.1448 148.119 72.0943C148.17 72.0354 148.233 72.006 148.309 72.006H149.331C149.432 72.006 149.508 72.0312 149.558 72.0817C149.609 72.1322 149.646 72.1869 149.672 72.2458L151.35 76.3725L153.079 72.2458C153.104 72.1784 153.142 72.1238 153.193 72.0817C153.243 72.0312 153.319 72.006 153.42 72.006H154.429C154.497 72.006 154.556 72.0312 154.606 72.0817C154.665 72.1322 154.694 72.1911 154.694 72.2584C154.694 72.3089 154.678 72.3762 154.644 72.4603L151.072 80.7264C151.039 80.7937 150.997 80.8484 150.946 80.8904C150.896 80.9409 150.82 80.9662 150.719 80.9662H149.722Z" fill="white"/>
<defs>
<clipPath id="clip0_561_20330">
<rect width="155" height="61.9998" fill="white"/>
</clipPath>
</defs>
</svg>
