<svg width="118" height="53" viewBox="0 0 118 53" fill="none" xmlns="http://www.w3.org/2000/svg">
<path d="M47.7579 16.8078L61.8518 16.2386C60.9774 14.6118 60.7575 13.1902 59.0819 12.946L51.5635 11.8468L36.9712 9.71436C37.4109 10.5033 44.216 16.9494 47.7579 16.8078Z" fill="#F7FF93"/>
<path d="M30.4419 0C31.9637 2.82368 39.6702 8.97423 41.8685 9.282L59.8927 11.8834C58.7105 9.71191 58.4418 8.2561 56.3167 7.63078L47.0542 4.89748L30.4419 0Z" fill="#1FAB89"/>
<path d="M52.3231 21.9471L63.1537 19.3579C62.4502 18.056 62.4502 17.2719 61.1337 17.3378L54.7291 17.6578L42.9312 18.2489C43.3733 18.779 49.4896 22.6237 52.3231 21.9471Z" fill="#1FAB89"/>
<path d="M60.843 31.2853C62.8289 29.8392 63.3614 28.2833 64.4899 25.9115C65.7552 23.2588 64.9247 22.8606 63.5128 20.2348C63.3663 19.9661 61.4854 20.3252 61.2754 20.5865C61.0164 20.9041 61.1874 22.7092 61.1728 23.1122L60.843 31.2853Z" fill="#1FAB89"/>
<path d="M60.3815 20.8748C59.065 21.1874 57.3991 20.948 57.062 22.5186L55.6331 29.2139C58.8402 28.3541 60.2692 24.038 60.3815 20.8748Z" fill="#1FAB89"/>
<path d="M56.3291 21.9128C53.1537 22.6725 53.2246 23.7082 51.864 27.0424C54.0209 26.8103 56.0238 24.182 56.3291 21.9128Z" fill="#1FAB89"/>
<path d="M12.9695 38.5695V46.1437H13.2621C13.4788 46.1437 13.6522 46.1979 13.7822 46.3063C13.9122 46.4038 13.9772 46.5609 13.9772 46.7776V47.4115C13.9772 47.6282 13.9122 47.7908 13.7822 47.8991C13.6522 47.9966 13.4788 48.0454 13.2621 48.0454H10.4014C9.93551 48.0454 9.70254 47.8341 9.70254 47.4115V46.7776C9.70254 46.355 9.93551 46.1437 10.4014 46.1437H10.694V38.9596L8.27222 44.4209C8.15302 44.7134 7.95256 44.8597 7.67083 44.8597H6.98818C6.70645 44.8597 6.50599 44.7134 6.3868 44.4209L3.96501 38.9596V46.1437H4.25757C4.72351 46.1437 4.95648 46.355 4.95648 46.7776V47.4115C4.95648 47.8341 4.72351 48.0454 4.25757 48.0454H1.72201C1.50529 48.0454 1.33192 47.9966 1.20189 47.8991C1.07186 47.7908 1.00685 47.6282 1.00685 47.4115V46.7776C1.00685 46.5609 1.07186 46.4038 1.20189 46.3063C1.33192 46.1979 1.50529 46.1437 1.72201 46.1437H2.01457V38.5695H1.72201C1.50529 38.5695 1.33192 38.5208 1.20189 38.4233C1.07186 38.3149 1.00685 38.1524 1.00685 37.9357V37.3018C1.00685 37.085 1.07186 36.9279 1.20189 36.8304C1.33192 36.722 1.49987 36.6679 1.70575 36.6679H4.82645C5.14069 36.6679 5.35198 36.8142 5.46034 37.1067L7.52455 41.7878L9.57251 37.1067C9.6917 36.8142 9.903 36.6679 10.2064 36.6679H13.2621C13.4788 36.6679 13.6522 36.722 13.7822 36.8304C13.9122 36.9279 13.9772 37.085 13.9772 37.3018V37.9357C13.9772 38.1524 13.9122 38.3149 13.7822 38.4233C13.6522 38.5208 13.4788 38.5695 13.2621 38.5695H12.9695ZM28.4348 44.3396C28.6624 44.3396 28.8249 44.4046 28.9225 44.5346C29.0308 44.6647 29.085 44.8326 29.085 45.0385V47.2002C29.085 47.4386 28.9983 47.6391 28.8249 47.8016C28.6624 47.9641 28.4565 48.0454 28.2073 48.0454H21.0232C20.8065 48.0454 20.6331 47.9966 20.5031 47.8991C20.373 47.7908 20.308 47.6282 20.308 47.4115V46.7776C20.308 46.5609 20.373 46.4038 20.5031 46.3063C20.6331 46.1979 20.8065 46.1437 21.0232 46.1437H21.3158V38.5695H21.0232C20.8065 38.5695 20.6331 38.5208 20.5031 38.4233C20.373 38.3149 20.308 38.1524 20.308 37.9357V37.3018C20.308 37.085 20.373 36.9279 20.5031 36.8304C20.6331 36.722 20.8011 36.6679 21.0069 36.6679H28.1098C28.359 36.6679 28.5649 36.7491 28.7274 36.9117C28.9008 37.0742 28.9875 37.2801 28.9875 37.5293V39.3822C28.9875 39.5989 28.9333 39.7723 28.8249 39.9023C28.7274 40.0324 28.5703 40.0974 28.3536 40.0974H27.7197C27.503 40.0974 27.3404 40.0324 27.2321 39.9023C27.1346 39.7723 27.0858 39.5989 27.0858 39.3822V38.5695H23.5913V41.2026H26.3056C26.5115 41.2026 26.6795 41.2731 26.8095 41.4139C26.9503 41.544 27.0208 41.7065 27.0208 41.9015V42.4054C27.0208 42.6113 26.9503 42.7792 26.8095 42.9093C26.6795 43.0393 26.5115 43.1043 26.3056 43.1043H23.5913V46.1437H27.1671V45.0385C27.1671 44.8326 27.2158 44.6647 27.3133 44.5346C27.4217 44.4046 27.5897 44.3396 27.8172 44.3396H28.4348ZM45.6219 36.6679C46.0879 36.6679 46.3208 36.8792 46.3208 37.3018V37.9357C46.3208 38.3582 46.0879 38.5695 45.6219 38.5695H45.3293V47.2977C45.3293 47.5036 45.2589 47.6824 45.1181 47.8341C44.9772 47.975 44.7984 48.0454 44.5817 48.0454H43.5577C43.3193 48.0454 43.1405 47.9479 43.0213 47.7528L38.5516 40.6175V46.1437H38.8442C39.3101 46.1437 39.5431 46.355 39.5431 46.7776V47.4115C39.5431 47.8341 39.3101 48.0454 38.8442 48.0454H36.3086C36.0919 48.0454 35.9185 47.9966 35.7885 47.8991C35.6584 47.7908 35.5934 47.6282 35.5934 47.4115V46.7776C35.5934 46.5609 35.6584 46.4038 35.7885 46.3063C35.9185 46.1979 36.0919 46.1437 36.3086 46.1437H36.6011V38.5695H36.3086C36.0919 38.5695 35.9185 38.5208 35.7885 38.4233C35.6584 38.3149 35.5934 38.1524 35.5934 37.9357V37.3018C35.5934 37.085 35.6584 36.9279 35.7885 36.8304C35.9185 36.722 36.0865 36.6679 36.2923 36.6679H38.3728C38.6112 36.6679 38.79 36.7654 38.9092 36.9604L43.3789 44.112V38.5695H43.0863C42.8696 38.5695 42.6963 38.5208 42.5662 38.4233C42.4362 38.3149 42.3712 38.1524 42.3712 37.9357V37.3018C42.3712 37.085 42.4362 36.9279 42.5662 36.8304C42.6963 36.722 42.8696 36.6679 43.0863 36.6679H45.6219ZM60.8367 36.6679C61.0859 36.6679 61.2918 36.7491 61.4543 36.9117C61.6277 37.0742 61.7144 37.2801 61.7144 37.5293V39.496C61.7144 39.7019 61.6602 39.8698 61.5519 39.9999C61.4543 40.1299 61.2972 40.1949 61.0805 40.1949H60.4466C60.2299 40.1949 60.0674 40.1299 59.959 39.9999C59.8615 39.8698 59.8127 39.7019 59.8127 39.496V38.5695H58.1386V46.1437H58.4474C58.6533 46.1437 58.8213 46.1979 58.9513 46.3063C59.0813 46.4038 59.1463 46.5609 59.1463 46.7776V47.4115C59.1463 47.6282 59.0813 47.7908 58.9513 47.8991C58.8213 47.9966 58.6533 48.0454 58.4474 48.0454H55.5705C55.1046 48.0454 54.8716 47.8341 54.8716 47.4115V46.7776C54.8716 46.355 55.1046 46.1437 55.5705 46.1437H55.8631V38.5695H54.2052V39.496C54.2052 39.7019 54.151 39.8698 54.0427 39.9999C53.9452 40.1299 53.788 40.1949 53.5713 40.1949H52.9374C52.7207 40.1949 52.5582 40.1299 52.4498 39.9999C52.3523 39.8698 52.3036 39.7019 52.3036 39.496V37.5293C52.3036 37.2801 52.3848 37.0742 52.5474 36.9117C52.7207 36.7491 52.9266 36.6679 53.165 36.6679H60.8367ZM82.8159 36.6679C83.0218 36.6679 83.1898 36.722 83.3198 36.8304C83.4498 36.9279 83.5148 37.085 83.5148 37.3018V37.9357C83.5148 38.1524 83.4498 38.3149 83.3198 38.4233C83.1898 38.5208 83.0218 38.5695 82.8159 38.5695H82.5071L80.0691 47.5415C80.0257 47.6932 79.939 47.8179 79.809 47.9154C79.679 48.0021 79.5273 48.0454 79.3539 48.0454H78.3137C78.1403 48.0454 77.9832 48.0021 77.8423 47.9154C77.7123 47.8179 77.6256 47.6932 77.5823 47.5415L75.5343 41.3002L73.5026 47.5415C73.4484 47.6932 73.3509 47.8179 73.21 47.9154C73.08 48.0021 72.9283 48.0454 72.7549 48.0454H71.6984C71.5359 48.0454 71.3842 48.0021 71.2433 47.9154C71.1133 47.8179 71.0266 47.6932 70.9833 47.5415L68.5452 38.5695H68.2364C68.0305 38.5695 67.8626 38.5208 67.7326 38.4233C67.6025 38.3149 67.5375 38.1524 67.5375 37.9357V37.3018C67.5375 37.085 67.6025 36.9279 67.7326 36.8304C67.8626 36.722 68.0305 36.6679 68.2364 36.6679H71.1458C71.6118 36.6679 71.8447 36.8792 71.8447 37.3018V37.9357C71.8447 38.3582 71.6118 38.5695 71.1458 38.5695H70.8533L72.5111 44.8109L74.4616 38.8296C74.5157 38.6671 74.597 38.5425 74.7054 38.4558C74.8246 38.3582 74.9654 38.3095 75.128 38.3095H76.3307C76.4824 38.3095 76.6179 38.3582 76.7371 38.4558C76.8563 38.5425 76.943 38.6671 76.9971 38.8296L78.9313 44.7459L80.5567 38.5695H80.2641C79.7982 38.5695 79.5652 38.3582 79.5652 37.9357V37.3018C79.5652 36.8792 79.7982 36.6679 80.2641 36.6679H82.8159ZM99.5414 46.1437C100.007 46.1437 100.24 46.355 100.24 46.7776V47.4115C100.24 47.8341 100.007 48.0454 99.5414 48.0454H96.5995C96.3936 48.0454 96.2257 47.9966 96.0957 47.8991C95.9656 47.7908 95.9006 47.6282 95.9006 47.4115V46.7776C95.9006 46.5609 95.9656 46.4038 96.0957 46.3063C96.2257 46.1979 96.3936 46.1437 96.5995 46.1437H96.9083L96.3232 44.5021H92.7637L92.1785 46.1437H92.4711C92.6878 46.1437 92.8612 46.1979 92.9912 46.3063C93.1212 46.4038 93.1863 46.5609 93.1863 46.7776V47.4115C93.1863 47.6282 93.1212 47.7908 92.9912 47.8991C92.8612 47.9966 92.6878 48.0454 92.4711 48.0454H89.8868C89.6809 48.0454 89.5129 47.9966 89.3829 47.8991C89.2529 47.7908 89.1879 47.6282 89.1879 47.4115V46.7776C89.1879 46.5609 89.2529 46.4038 89.3829 46.3063C89.5129 46.1979 89.6809 46.1437 89.8868 46.1437H90.1956L93.4626 37.1717C93.5167 37.0092 93.6088 36.8846 93.7389 36.7979C93.8689 36.7112 94.0152 36.6679 94.1777 36.6679H95.2342C95.3967 36.6679 95.543 36.7112 95.6731 36.7979C95.8031 36.8846 95.8952 37.0092 95.9494 37.1717L99.2489 46.1437H99.5414ZM95.6406 42.5842L94.5353 39.4635L93.4301 42.5842H95.6406ZM115.669 36.6679C115.875 36.6679 116.043 36.722 116.173 36.8304C116.303 36.9279 116.368 37.085 116.368 37.3018V37.9357C116.368 38.1524 116.303 38.3149 116.173 38.4233C116.043 38.5208 115.875 38.5695 115.669 38.5695H115.361L112.289 43.7382V46.1437H112.581C113.047 46.1437 113.28 46.355 113.28 46.7776V47.4115C113.28 47.8341 113.047 48.0454 112.581 48.0454H109.721C109.504 48.0454 109.331 47.9966 109.201 47.8991C109.07 47.7908 109.005 47.6282 109.005 47.4115V46.7776C109.005 46.5609 109.07 46.4038 109.201 46.3063C109.331 46.1979 109.504 46.1437 109.721 46.1437H110.013V43.7382L106.925 38.5695H106.632C106.167 38.5695 105.934 38.3582 105.934 37.9357V37.3018C105.934 36.8792 106.167 36.6679 106.632 36.6679H109.802C110.008 36.6679 110.176 36.722 110.306 36.8304C110.436 36.9279 110.501 37.085 110.501 37.3018V37.9357C110.501 38.1524 110.436 38.3149 110.306 38.4233C110.176 38.5208 110.008 38.5695 109.802 38.5695H109.493L111.346 41.7227L113.183 38.5695H112.89C112.424 38.5695 112.191 38.3582 112.191 37.9357V37.3018C112.191 36.8792 112.424 36.6679 112.89 36.6679H115.669Z" fill="#1FAB89"/>
<path d="M117.271 25.5553H71.3306V26.5498H117.271V25.5553Z" fill="#1FAB89"/>
<path d="M46.5827 25.5553H0.64209V26.5498H46.5827V25.5553Z" fill="#1FAB89"/>
</svg>
